inDegrees=no
nColumns=24
nRows=14
DataType=double
version=3
OpenSimVersion=4.5
endheader
time	pelvis_tilt	pelvis_list	pelvis_rotation	pelvis_tz	pelvis_ty	pelvis_tx	hip_flexion_r	hip_adduction_r	hip_rotation_r	knee_angle_r	ankle_angle_r	subtalar_angle_r	mtp_angle_r	hip_flexion_l	hip_adduction_l	hip_rotation_l	knee_angle_l	ankle_angle_l	subtalar_angle_l	mtp_angle_l	lumbar_extension	lumbar_bending	lumbar_rotation
0.8599999999999999	-0.04479251043148565	0.07013739748390274	-0.01074483605496733	-0.003753599999999996	0.9735352500000001	0.96812575	0.4355315772307843	-0.1804675153715129	-0.1092023357247697	-1.107029623979852	0.01436586040010262	-0.1215065091907932	0	0.1204844316399218	0.1239594896929244	-0.1747689289699535	-0.1434014370661276	0.1154339336371164	0.0886211154320822	0	-0.1090799452091054	-0.1168213705596187	-0.04202584379622942
0.8699999999999999	-0.04504204439319155	0.06856683888268475	-0.005886439812876259	-0.004938890000000001	0.97380628	0.97802177	0.4563688713586598	-0.1756868079210199	-0.1097588547261862	-1.089140195147385	0.01734527653599832	-0.1186072933774876	0	0.1033793778588449	0.1244971619309462	-0.1730963956557306	-0.1339282754369003	0.1240630697480426	0.09324434339496415	0	-0.1107540301210333	-0.1147486217287405	-0.04826943700745922
0.8799999999999999	-0.04093873428657441	0.06571361840706862	-3.679967797458759e-05	-0.00612625	0.97459759	0.98835484	0.4672244337628327	-0.1703185530056684	-0.1135528275431608	-1.062180537505458	0.0288086837115658	-0.1072562627164683	0	0.08017775094500788	0.1228704497927735	-0.1719584542479326	-0.1223815130815868	0.1290260255262264	0.1080446635443109	0	-0.1166761589913199	-0.1111575242386885	-0.05343972777787035
0.8899999999999999	-0.03610683269028549	0.06367140229764823	0.002942077776522863	-0.00713606	0.9749716	0.99859547	0.4782361429212	-0.1649180325375011	-0.1140984380622194	-1.033707371176907	0.03907288039407573	-0.09480104880604308	0	0.05651777892751448	0.122270134546305	-0.172296241780705	-0.1120134258498849	0.1371784246029044	0.1169336350240289	0	-0.1234429392549774	-0.108783793029238	-0.05594022364715663
0.8999999999999999	-0.03651676120573782	0.06422750717764997	0.00675352048399424	-0.008129919999999985	0.9746582100000001	1.00863155	0.4939843604630169	-0.1613695514499268	-0.1124511158545086	-1.001922272074028	0.04532267807626344	-0.08889173012886735	0	0.04016984880141974	0.1242015138021668	-0.1754526486144529	-0.1032029406048986	0.1446814585724805	0.1216018519899736	0	-0.1241836548951287	-0.1090509006614241	-0.06247196565643586
0.9099999999999999	-0.03170615459720597	0.06081470282239161	0.01141307750776635	-0.009012119999999985	0.9749478100000001	1.01900709	0.4990985589692628	-0.1543792112642496	-0.1146364523847745	-0.9621199662256665	0.05778645910985501	-0.07097843915486719	0	0.01696987960130631	0.1213707066924919	-0.1765229571174727	-0.09395124153552881	0.1526864385884218	0.1341458605732916	0	-0.1308801170649539	-0.1055701570238502	-0.06400184081905556
0.9199999999999999	-0.03334158151646014	0.06430765933643898	0.01674440349180282	-0.009992339999999988	0.9740531800000001	1.0290227	0.5125730442901881	-0.1538291819205908	-0.1117403814802481	-0.9221930382836588	0.05939485314486344	-0.06836501419979157	0	0.005368420896163365	0.1258485780502141	-0.1789122072710331	-0.09238751920272517	0.1589927146016053	0.1349478575160072	0	-0.1302086519007315	-0.1098114755304692	-0.06797601643783756
0.9299999999999999	-0.02625634699793482	0.0603759736818086	0.01978594349323534	-0.01070014	0.97419462	1.03951965	0.5110032319800256	-0.1456639581645691	-0.1137372236730291	-0.873047556645573	0.06399198616650002	-0.05064563105101724	0	-0.02345974644944122	0.122695321884832	-0.1794214002735184	-0.07613529839495373	0.169797479023366	0.1528629234898567	0	-0.1387856527579725	-0.1046174535182187	-0.07277668242645885
0.9399999999999999	-0.02793432947605284	0.0621831284247389	0.02178849929172377	-0.01123626	0.97306275	1.04968754	0.5203951017577485	-0.1413502097157228	-0.1073987746094802	-0.8242773558777839	0.06312194267597351	-0.04560708419026489	0	-0.03701844408130816	0.1254268508269291	-0.1803079050114181	-0.0708746915481409	0.1783510525005904	0.1556038265953663	0	-0.138099476388018	-0.1066487170945076	-0.07883400868939514
0.9499999999999997	-0.02817315696728229	0.06450628515779543	0.02381360803175773	-0.01167536	0.97184466	1.06043171	0.5248984807534228	-0.1372821992622341	-0.1003868670411702	-0.7708286790987068	0.06093597241665621	-0.03926997711037786	0	-0.05279373325061988	0.1284504354866063	-0.1794808367630634	-0.06562051484335825	0.1859665059198143	0.160688471790454	0	-0.1371726828187312	-0.1098575188869332	-0.08024842316614549
0.96	-0.02346326617077895	0.06082880592311581	0.02720151845811451	-0.01236652999999999	0.9713744200000001	1.07035814	0.5199385655133288	-0.1302584252003399	-0.1030120898983906	-0.708862444584185	0.05240997095282308	-0.0244356198990246	0	-0.0698180296000095	0.1247934750301706	-0.1822931512366488	-0.0658379022339453	0.1998116431487942	0.1628616555931383	0	-0.1437443457439913	-0.1044274533106552	-0.08159429088372132
0.9699999999999998	-0.02267965853535356	0.06251861512855665	0.02940341723629944	-0.01280646999999999	0.9702654000000001	1.08059113	0.5183515917296972	-0.1272675923422081	-0.09836030834894599	-0.6462220269041966	0.04538796927278422	-0.01206643832888499	0	-0.08158686764934674	0.1264453373628646	-0.1821499717551981	-0.06885701413834837	0.2083066508812375	0.1637594435355862	0	-0.1461710775413701	-0.1065528845559391	-0.08426625522910638
0.98	-0.02229300593492993	0.06534760533412856	0.03027143573882347	-0.01308066999999999	0.9687396300000001	1.0909906	0.5165562540822444	-0.1254278851090439	-0.09284030752710909	-0.5834548091341887	0.03609689784441748	0.002711691355286034	0	-0.09574944588627814	0.1298495573884507	-0.1793136446926978	-0.06767215234613731	0.2193705492239637	0.1598161632116242	0	-0.1471326228849921	-0.1098699129935504	-0.08499991520122357
0.9899999999999998	-0.02511175595373631	0.0690872865153669	0.03348476375227828	-0.01356657999999999	0.96689642	1.10147792	0.5150087065882836	-0.1267797763069342	-0.09194753618453018	-0.5166783543496541	0.02444513456144184	0.01831904599116841	0	-0.104120905949763	0.1338075885371188	-0.1722339364934686	-0.07118420579422861	0.22911047378285	0.1537502809956288	0	-0.1442728183515258	-0.1139886493473531	-0.08811767259135057
